<?xml version="1.0" encoding="utf-8"?>
<!-- Generator: Adobe Illustrator 19.0.0, SVG Export Plug-In . SVG Version: 6.00 Build 0)  -->
<svg version="1.1" id="layer" xmlns="http://www.w3.org/2000/svg" xmlns:xlink="http://www.w3.org/1999/xlink" x="0px" y="0px"
	 viewBox="-153 -46 652 652" style="enable-background:new -153 -46 652 652;" xml:space="preserve">
<style type="text/css">
	.st0{fill:#00B1A8;}
</style>
<g>
	<path class="st0" d="M-33.8,310.4c-6.9,5.9-15.9,9.5-25.7,9.5c-21.9,0-39.6-17.8-39.6-39.6c0-21.9,17.8-39.6,39.6-39.6
		c12,0,22.7,5.3,30,13.8c3-8.8,7.6-17.1,13.6-24.4c-11.7-10.2-26.9-16.3-43.6-16.3c-36.7,0-66.6,29.9-66.6,66.6
		c0,36.7,29.9,66.6,66.6,66.6c9.1,0,17.8-1.8,25.7-5.2V310.4z"/>
	<path class="st0" d="M128.7,319.9c-21.9,0-39.6-17.8-39.6-39.6c0-21.9,17.8-39.6,39.6-39.6c13.6,0,25.6,6.9,32.7,17.3l13.8-25.2
		c-12-11.7-28.4-19-46.5-19c-36.7,0-66.6,29.9-66.6,66.6c0,36.7,29.9,66.6,66.6,66.6c18.1,0,34.5-7.3,46.5-19l-13.8-25.2
		C154.3,313,142.3,319.9,128.7,319.9"/>
	<path class="st0" d="M49.2,277.4H6.3c1.5-20.5,18.6-36.8,39.5-36.8c4.4,0,8.7,0.7,12.7,2.1c4.4-8.3,10.3-15.7,17.3-21.9
		c-9-4.6-19.2-7.2-30-7.2c-35.8,0-65,28.3-66.5,63.7h-0.1v69.4H6.2v-42.5h43V277.4z"/>
	<path class="st0" d="M214.8,241.5c-1.1,1.1-2.3,2-3.7,2.7c-1.4,0.7-3.1,1-5,1c-1.9,0-3.6-0.3-5.1-0.9c-1.5-0.6-2.8-1.4-3.8-2.4
		c-1-1.1-1.8-2.3-2.3-3.8c-0.5-1.5-0.8-3.1-0.8-4.9c0-1.6,0.3-3.2,0.9-4.6c0.6-1.5,1.4-2.7,2.5-3.8c1.1-1.1,2.3-2,3.8-2.6
		c1.5-0.6,3.1-1,4.9-1c1.8,0,3.5,0.3,5,1c1.5,0.7,2.8,1.5,3.8,2.7l-3.6,3.6c-0.6-0.7-1.4-1.3-2.3-1.7c-0.9-0.4-1.9-0.6-3-0.6
		c-1.1,0-2,0.2-2.8,0.6c-0.8,0.4-1.5,0.9-2,1.6c-0.5,0.6-0.9,1.4-1.2,2.3c-0.3,0.9-0.4,1.7-0.4,2.6c0,0.9,0.1,1.7,0.4,2.5
		c0.3,0.8,0.6,1.6,1.2,2.3c0.5,0.7,1.2,1.2,2,1.6c0.8,0.4,1.7,0.6,2.8,0.6c1.1,0,2.1-0.2,3.1-0.6c0.9-0.4,1.7-1,2.3-1.8L214.8,241.5
		z"/>
	<path class="st0" d="M229.1,240.4c1.1,0,2-0.2,2.8-0.6c0.8-0.4,1.5-1,2-1.7c0.5-0.7,0.9-1.5,1.2-2.3c0.3-0.8,0.4-1.7,0.4-2.5
		c0-0.8-0.1-1.6-0.4-2.5c-0.3-0.8-0.6-1.6-1.2-2.3c-0.5-0.7-1.2-1.2-2-1.7c-0.8-0.4-1.7-0.6-2.8-0.6c-1.1,0-2,0.2-2.8,0.6
		c-0.8,0.4-1.5,1-2,1.7c-0.5,0.7-0.9,1.5-1.2,2.3c-0.3,0.8-0.4,1.7-0.4,2.5c0,0.8,0.1,1.7,0.4,2.5c0.3,0.8,0.6,1.6,1.2,2.3
		c0.5,0.7,1.2,1.3,2,1.7C227.1,240.2,228,240.4,229.1,240.4 M217,233.2c0-1.6,0.3-3.2,0.9-4.6c0.6-1.5,1.4-2.7,2.5-3.8
		c1.1-1.1,2.3-2,3.8-2.6c1.5-0.6,3.1-1,4.9-1c1.8,0,3.4,0.3,4.9,1c1.5,0.6,2.8,1.5,3.8,2.6c1.1,1.1,1.9,2.4,2.5,3.8
		c0.6,1.5,0.9,3,0.9,4.6c0,1.6-0.3,3.2-0.9,4.6c-0.6,1.5-1.4,2.7-2.5,3.8c-1.1,1.1-2.3,2-3.8,2.6c-1.5,0.6-3.1,1-4.9,1
		c-1.8,0-3.4-0.3-4.9-1c-1.5-0.6-2.8-1.5-3.8-2.6c-1.1-1.1-1.9-2.4-2.5-3.8C217.3,236.4,217,234.9,217,233.2"/>
	<path class="st0" d="M245.2,222h5.4l0.1,2.5c0.3-0.3,0.6-0.7,1-1c0.4-0.4,0.8-0.7,1.3-1c0.5-0.3,1.1-0.5,1.8-0.7
		c0.7-0.2,1.5-0.3,2.4-0.3c3,0,5.2,1.1,6.8,3.3c1.2-1.2,2.3-2,3.5-2.5c1.2-0.5,2.6-0.7,4.2-0.7c2.8,0,5,0.8,6.5,2.5s2.3,3.9,2.3,6.8
		v13.7H275v-13.6c0-1.4-0.4-2.5-1.1-3.3c-0.7-0.8-1.7-1.2-2.9-1.2c-0.8,0-1.5,0.2-2.1,0.5c-0.6,0.3-1.2,0.7-1.7,1.3
		c-0.5,0.5-0.8,1.2-1.1,1.9c-0.2,0.7-0.4,1.5-0.4,2.3v12.2h-5.7v-13.6c0-1.4-0.4-2.5-1.1-3.3c-0.7-0.8-1.7-1.2-3-1.2
		c-0.8,0-1.5,0.2-2.1,0.5c-0.6,0.3-1.2,0.7-1.7,1.3c-0.5,0.5-0.8,1.2-1.1,1.9c-0.2,0.7-0.4,1.5-0.4,2.3v12.2h-5.7V222z"/>
	<path class="st0" d="M286.6,222h5.4l0.1,2.5c0.3-0.3,0.6-0.7,1-1c0.4-0.4,0.8-0.7,1.3-1c0.5-0.3,1.1-0.5,1.8-0.7
		c0.7-0.2,1.5-0.3,2.4-0.3c3,0,5.2,1.1,6.8,3.3c1.2-1.2,2.3-2,3.5-2.5c1.2-0.5,2.6-0.7,4.2-0.7c2.8,0,5,0.8,6.5,2.5
		c1.5,1.7,2.3,3.9,2.3,6.8v13.7h-5.7v-13.6c0-1.4-0.4-2.5-1.1-3.3c-0.7-0.8-1.7-1.2-2.9-1.2c-0.8,0-1.5,0.2-2.1,0.5
		c-0.6,0.3-1.2,0.7-1.7,1.3c-0.5,0.5-0.8,1.2-1.1,1.9c-0.2,0.7-0.4,1.5-0.4,2.3v12.2h-5.7v-13.6c0-1.4-0.4-2.5-1.1-3.3
		c-0.7-0.8-1.7-1.2-3-1.2c-0.8,0-1.5,0.2-2.1,0.5c-0.6,0.3-1.2,0.7-1.7,1.3c-0.5,0.5-0.8,1.2-1.1,1.9c-0.2,0.7-0.4,1.5-0.4,2.3v12.2
		h-5.7V222z"/>
	<path class="st0" d="M339,240.4c1.1,0,2-0.2,2.8-0.6c0.8-0.4,1.5-1,2-1.7c0.5-0.7,0.9-1.5,1.2-2.3c0.3-0.8,0.4-1.7,0.4-2.5
		c0-0.8-0.1-1.6-0.4-2.5c-0.3-0.8-0.6-1.6-1.2-2.3c-0.5-0.7-1.2-1.2-2-1.7c-0.8-0.4-1.7-0.6-2.8-0.6c-1.1,0-2,0.2-2.8,0.6
		c-0.8,0.4-1.5,1-2,1.7c-0.5,0.7-0.9,1.5-1.2,2.3c-0.3,0.8-0.4,1.7-0.4,2.5c0,0.8,0.1,1.7,0.4,2.5c0.3,0.8,0.6,1.6,1.2,2.3
		c0.5,0.7,1.2,1.3,2,1.7C337,240.2,337.9,240.4,339,240.4 M326.9,233.2c0-1.6,0.3-3.2,0.9-4.6c0.6-1.5,1.4-2.7,2.5-3.8
		c1.1-1.1,2.3-2,3.8-2.6c1.5-0.6,3.1-1,4.9-1c1.8,0,3.4,0.3,4.9,1c1.5,0.6,2.8,1.5,3.8,2.6c1.1,1.1,1.9,2.4,2.5,3.8
		c0.6,1.5,0.9,3,0.9,4.6c0,1.6-0.3,3.2-0.9,4.6c-0.6,1.5-1.4,2.7-2.5,3.8c-1.1,1.1-2.3,2-3.8,2.6c-1.5,0.6-3.1,1-4.9,1
		c-1.8,0-3.4-0.3-4.9-1c-1.5-0.6-2.8-1.5-3.8-2.6c-1.1-1.1-1.9-2.4-2.5-3.8C327.2,236.4,326.9,234.9,326.9,233.2"/>
	<path class="st0" d="M356.1,222h5.4l0.1,2.5c0.3-0.3,0.6-0.7,1-1c0.4-0.4,0.9-0.7,1.4-1c0.6-0.3,1.2-0.6,1.9-0.7
		c0.7-0.2,1.5-0.3,2.4-0.3c2.8,0,5,0.8,6.4,2.5c1.5,1.7,2.2,3.9,2.2,6.8v13.7h-5.7v-13.6c0-1.4-0.4-2.5-1.2-3.3
		c-0.8-0.8-1.8-1.2-3-1.2c-0.8,0-1.5,0.2-2.2,0.5c-0.7,0.3-1.2,0.7-1.7,1.3c-0.5,0.5-0.9,1.2-1.1,1.9c-0.3,0.7-0.4,1.5-0.4,2.3v12.2
		h-5.7V222z"/>
	<path class="st0" d="M197.2,276.6h-3.8V272h3.8v-1.4c0-1.6,0.3-3,0.8-4.2c0.5-1.1,1.2-2.1,2-2.8c0.8-0.7,1.7-1.2,2.7-1.6
		c1-0.3,2-0.5,2.9-0.5c1,0,2.2,0.1,3.4,0.4c1.2,0.3,2.4,0.9,3.6,1.9l-2.6,3.7c-0.5-0.4-1.1-0.6-1.7-0.9c-0.6-0.2-1.2-0.3-1.8-0.3
		c-1.1,0-2,0.4-2.7,1.1c-0.7,0.7-1,1.7-1,3.1v1.3h5.8v4.6h-5.8v17.9h-5.7V276.6z"/>
	<path class="st0" d="M213.1,272h5.7v13.6c0,1.4,0.4,2.5,1.2,3.3c0.8,0.8,1.8,1.2,3,1.2c0.8,0,1.5-0.1,2.2-0.5
		c0.7-0.3,1.2-0.7,1.7-1.3c0.5-0.5,0.9-1.2,1.1-1.9c0.3-0.7,0.4-1.5,0.4-2.3V272h5.7v22.5h-5.4l-0.1-2.5c-0.3,0.3-0.6,0.7-1.1,1
		c-0.4,0.4-0.9,0.7-1.4,1c-0.5,0.3-1.2,0.5-1.9,0.7c-0.7,0.2-1.5,0.3-2.4,0.3c-2.8,0-5-0.8-6.4-2.5c-1.5-1.7-2.2-3.9-2.2-6.8V272z"
		/>
	<path class="st0" d="M240.2,272h5.4l0.1,2.5c0.3-0.3,0.6-0.7,1-1c0.4-0.4,0.9-0.7,1.4-1c0.6-0.3,1.2-0.5,1.9-0.7
		c0.7-0.2,1.5-0.3,2.4-0.3c2.8,0,5,0.8,6.4,2.5c1.5,1.7,2.2,3.9,2.2,6.8v13.7h-5.7v-13.6c0-1.4-0.4-2.6-1.2-3.3
		c-0.8-0.8-1.8-1.2-3-1.2c-0.8,0-1.5,0.2-2.2,0.5c-0.7,0.3-1.2,0.7-1.7,1.3c-0.5,0.5-0.9,1.2-1.1,1.9c-0.3,0.7-0.4,1.5-0.4,2.3v12.2
		h-5.7V272z"/>
	<path class="st0" d="M281.7,277.6c-0.5-0.4-1.2-0.8-1.9-0.9c-0.7-0.2-1.6-0.3-2.8-0.3c-1.1,0-2,0.2-2.8,0.6c-0.7,0.4-1.4,1-1.9,1.7
		c-0.5,0.6-0.9,1.4-1.1,2.2c-0.3,0.8-0.4,1.7-0.4,2.7c0,1.9,0.5,3.5,1.4,4.8c1,1.3,2.4,1.9,4.2,1.9c1,0,1.8-0.2,2.4-0.6
		c0.7-0.4,1.2-0.8,1.6-1.4c0.4-0.6,0.7-1.2,0.9-1.9c0.2-0.7,0.3-1.3,0.3-2V277.6z M281.7,292.3c-0.3,0.3-0.6,0.7-1.1,1
		c-0.4,0.4-0.9,0.7-1.5,1c-0.6,0.3-1.2,0.5-1.9,0.7c-0.7,0.2-1.5,0.3-2.3,0.3c-1.2,0-2.4-0.3-3.6-0.8c-1.2-0.5-2.2-1.3-3.2-2.3
		c-0.9-1-1.7-2.2-2.3-3.6c-0.6-1.4-0.9-3.1-0.9-4.9c0-1.8,0.3-3.3,0.8-4.6c0.5-1.3,1.2-2.5,1.9-3.4c0.6-0.8,1.3-1.4,2.1-1.9
		c0.8-0.5,1.5-0.9,2.3-1.3c0.8-0.3,1.5-0.6,2.3-0.7c0.7-0.1,1.4-0.2,1.9-0.2c0.7,0,1.3,0,1.8,0.1c0.5,0.1,0.9,0.1,1.3,0.2
		c0.4,0.1,0.7,0.2,1.1,0.3c0.3,0.1,0.7,0.3,1.1,0.4v-10h5.6v32h-5.5L281.7,292.3z"/>
	<path class="st0" d="M309.9,276.6h-3.8V272h3.8v-1.4c0-1.6,0.3-3,0.8-4.2c0.5-1.1,1.2-2.1,2-2.8c0.8-0.7,1.7-1.2,2.7-1.6
		c1-0.3,2-0.5,2.9-0.5c1,0,2.2,0.1,3.4,0.4c1.2,0.3,2.4,0.9,3.6,1.9l-2.6,3.7c-0.5-0.4-1.1-0.6-1.7-0.9c-0.6-0.2-1.2-0.3-1.8-0.3
		c-1.1,0-2,0.4-2.7,1.1c-0.7,0.7-1,1.7-1,3.1v1.3h5.8v4.6h-5.8v17.9h-5.7V276.6z"/>
	<path class="st0" d="M335.2,290.4c1.1,0,2-0.2,2.8-0.7c0.8-0.4,1.5-1,2-1.7c0.5-0.7,0.9-1.5,1.2-2.3c0.3-0.8,0.4-1.7,0.4-2.5
		c0-0.8-0.1-1.6-0.4-2.5c-0.3-0.8-0.6-1.6-1.2-2.3c-0.5-0.7-1.2-1.2-2-1.7c-0.8-0.4-1.7-0.6-2.8-0.6c-1.1,0-2,0.2-2.8,0.6
		c-0.8,0.4-1.5,1-2,1.7c-0.5,0.7-0.9,1.5-1.2,2.3c-0.3,0.8-0.4,1.7-0.4,2.5c0,0.8,0.1,1.7,0.4,2.5c0.3,0.8,0.6,1.6,1.2,2.3
		c0.5,0.7,1.2,1.3,2,1.7C333.2,290.2,334.1,290.4,335.2,290.4 M323.1,283.2c0-1.6,0.3-3.2,0.9-4.6c0.6-1.5,1.4-2.7,2.5-3.8
		c1.1-1.1,2.3-2,3.8-2.6c1.5-0.6,3.1-1,4.9-1c1.8,0,3.4,0.3,4.9,1c1.5,0.6,2.8,1.5,3.8,2.6c1.1,1.1,1.9,2.4,2.5,3.8
		c0.6,1.5,0.9,3,0.9,4.6c0,1.6-0.3,3.2-0.9,4.6c-0.6,1.5-1.4,2.7-2.5,3.8c-1.1,1.1-2.3,2-3.8,2.6c-1.5,0.6-3.1,1-4.9,1
		c-1.8,0-3.4-0.3-4.9-1c-1.5-0.6-2.8-1.5-3.8-2.6c-1.1-1.1-1.9-2.4-2.5-3.8C323.4,286.4,323.1,284.9,323.1,283.2"/>
	<path class="st0" d="M351.3,272h5.4l0.1,2.8c0.3-0.3,0.6-0.7,1-1.1c0.4-0.4,0.9-0.7,1.4-1.1c0.5-0.3,1.2-0.6,1.9-0.8
		c0.7-0.2,1.5-0.3,2.5-0.3c0.5,0,1,0,1.5,0.1c0.4,0.1,0.9,0.2,1.3,0.3l-1.2,5.3c-0.4-0.2-0.8-0.3-1.2-0.3c-0.4-0.1-0.9-0.1-1.4-0.1
		c-0.8,0-1.5,0.1-2.2,0.4c-0.7,0.3-1.3,0.6-1.8,1.1c-0.5,0.5-0.9,1.1-1.2,1.7c-0.3,0.7-0.5,1.4-0.5,2.3v12.1h-5.7V272z"/>
	<path class="st0" d="M212.9,334.9c-1.1,1.1-2.3,2-3.7,2.7c-1.4,0.7-3.1,1-5,1c-1.9,0-3.6-0.3-5.1-0.9c-1.5-0.6-2.8-1.4-3.8-2.5
		c-1-1.1-1.8-2.3-2.3-3.8c-0.5-1.5-0.8-3.1-0.8-4.9c0-1.6,0.3-3.2,0.9-4.6c0.6-1.5,1.4-2.7,2.5-3.8c1.1-1.1,2.3-2,3.8-2.6
		c1.5-0.6,3.1-1,4.9-1c1.8,0,3.5,0.3,5,1c1.5,0.6,2.8,1.5,3.8,2.7l-3.6,3.6c-0.6-0.7-1.4-1.3-2.3-1.7c-0.9-0.4-1.9-0.6-3-0.6
		c-1.1,0-2,0.2-2.8,0.6c-0.8,0.4-1.5,0.9-2,1.6c-0.5,0.6-0.9,1.4-1.2,2.2c-0.3,0.9-0.4,1.7-0.4,2.6c0,0.9,0.1,1.7,0.4,2.5
		c0.3,0.8,0.6,1.6,1.2,2.3c0.5,0.7,1.2,1.2,2,1.6c0.8,0.4,1.7,0.6,2.8,0.6c1.1,0,2.1-0.2,3.1-0.6c0.9-0.4,1.7-1,2.3-1.7L212.9,334.9
		z"/>
	<path class="st0" d="M228.2,333.8c1.1,0,2-0.2,2.8-0.6c0.8-0.4,1.5-1,2-1.7c0.5-0.7,0.9-1.5,1.2-2.3c0.3-0.8,0.4-1.7,0.4-2.5
		c0-0.8-0.1-1.6-0.4-2.5c-0.3-0.8-0.6-1.6-1.2-2.3c-0.5-0.7-1.2-1.3-2-1.7c-0.8-0.4-1.7-0.6-2.8-0.6c-1.1,0-2,0.2-2.8,0.6
		c-0.8,0.4-1.5,1-2,1.7c-0.5,0.7-0.9,1.5-1.2,2.3c-0.3,0.9-0.4,1.7-0.4,2.5c0,0.8,0.1,1.7,0.4,2.5c0.3,0.8,0.6,1.6,1.2,2.3
		c0.5,0.7,1.2,1.3,2,1.7C226.1,333.6,227.1,333.8,228.2,333.8 M216.1,326.6c0-1.6,0.3-3.2,0.9-4.6c0.6-1.5,1.4-2.7,2.5-3.8
		c1.1-1.1,2.3-2,3.8-2.6c1.5-0.6,3.1-1,4.9-1c1.8,0,3.4,0.3,4.9,1c1.5,0.6,2.8,1.5,3.8,2.6c1.1,1.1,1.9,2.4,2.5,3.8
		c0.6,1.5,0.9,3,0.9,4.6c0,1.6-0.3,3.2-0.9,4.6c-0.6,1.5-1.4,2.7-2.5,3.8c-1.1,1.1-2.3,2-3.8,2.6c-1.5,0.6-3.1,1-4.9,1
		c-1.8,0-3.4-0.3-4.9-1c-1.5-0.6-2.8-1.5-3.8-2.6c-1.1-1.1-1.9-2.4-2.5-3.8C216.4,329.8,216.1,328.3,216.1,326.6"/>
	<path class="st0" d="M245.2,315.4h5.4l0.1,2.5c0.3-0.3,0.6-0.7,1-1c0.4-0.4,0.8-0.7,1.3-1c0.5-0.3,1.1-0.5,1.8-0.7
		c0.7-0.2,1.5-0.3,2.4-0.3c3,0,5.2,1.1,6.8,3.3c1.2-1.2,2.3-2,3.5-2.5c1.2-0.5,2.6-0.7,4.2-0.7c2.8,0,5,0.8,6.5,2.5
		c1.5,1.7,2.3,3.9,2.3,6.8v13.7H275v-13.6c0-1.4-0.4-2.5-1.1-3.3c-0.7-0.8-1.7-1.2-2.9-1.2c-0.8,0-1.5,0.2-2.1,0.5
		c-0.6,0.3-1.2,0.7-1.7,1.3c-0.5,0.5-0.8,1.2-1.1,1.9c-0.2,0.7-0.4,1.5-0.4,2.3v12.2h-5.7v-13.6c0-1.4-0.4-2.5-1.1-3.3
		c-0.7-0.8-1.7-1.2-3-1.2c-0.8,0-1.5,0.2-2.1,0.5c-0.6,0.3-1.2,0.7-1.7,1.3c-0.5,0.5-0.8,1.2-1.1,1.9c-0.2,0.7-0.4,1.5-0.4,2.3v12.2
		h-5.7V315.4z"/>
	<path class="st0" d="M285.6,315.4h5.4l0.1,2.5c0.3-0.3,0.6-0.7,1-1c0.4-0.4,0.8-0.7,1.3-1s1.1-0.5,1.8-0.7c0.7-0.2,1.5-0.3,2.4-0.3
		c3,0,5.2,1.1,6.8,3.3c1.2-1.2,2.3-2,3.5-2.5c1.2-0.5,2.6-0.7,4.2-0.7c2.8,0,5,0.8,6.5,2.5c1.5,1.7,2.3,3.9,2.3,6.8v13.7h-5.7v-13.6
		c0-1.4-0.4-2.5-1.1-3.3c-0.7-0.8-1.7-1.2-2.9-1.2c-0.8,0-1.5,0.2-2.1,0.5c-0.6,0.3-1.2,0.7-1.7,1.3c-0.5,0.5-0.8,1.2-1.1,1.9
		c-0.2,0.7-0.4,1.5-0.4,2.3v12.2h-5.7v-13.6c0-1.4-0.4-2.5-1.1-3.3c-0.7-0.8-1.7-1.2-3-1.2c-0.8,0-1.5,0.2-2.1,0.5
		c-0.6,0.3-1.2,0.7-1.7,1.3c-0.5,0.5-0.8,1.2-1.1,1.9c-0.2,0.7-0.4,1.5-0.4,2.3v12.2h-5.7V315.4z"/>
	<path class="st0" d="M338,333.8c1.1,0,2-0.2,2.8-0.6c0.8-0.4,1.5-1,2-1.7c0.5-0.7,0.9-1.5,1.2-2.3c0.3-0.8,0.4-1.7,0.4-2.5
		c0-0.8-0.1-1.6-0.4-2.5c-0.3-0.8-0.6-1.6-1.2-2.3c-0.5-0.7-1.2-1.3-2-1.7c-0.8-0.4-1.7-0.6-2.8-0.6c-1.1,0-2,0.2-2.8,0.6
		c-0.8,0.4-1.5,1-2,1.7c-0.5,0.7-0.9,1.5-1.2,2.3c-0.3,0.9-0.4,1.7-0.4,2.5c0,0.8,0.1,1.7,0.4,2.5c0.3,0.8,0.6,1.6,1.2,2.3
		c0.5,0.7,1.2,1.3,2,1.7C336,333.6,336.9,333.8,338,333.8 M325.9,326.6c0-1.6,0.3-3.2,0.9-4.6c0.6-1.5,1.4-2.7,2.5-3.8
		c1.1-1.1,2.3-2,3.8-2.6s3.1-1,4.9-1c1.8,0,3.4,0.3,4.9,1c1.5,0.6,2.8,1.5,3.8,2.6c1.1,1.1,1.9,2.4,2.5,3.8c0.6,1.5,0.9,3,0.9,4.6
		c0,1.6-0.3,3.2-0.9,4.6c-0.6,1.5-1.4,2.7-2.5,3.8c-1.1,1.1-2.3,2-3.8,2.6c-1.5,0.6-3.1,1-4.9,1c-1.8,0-3.4-0.3-4.9-1
		c-1.5-0.6-2.8-1.5-3.8-2.6c-1.1-1.1-1.9-2.4-2.5-3.8C326.2,329.8,325.9,328.3,325.9,326.6"/>
	<path class="st0" d="M370.7,321c-0.5-0.4-1.2-0.8-1.9-0.9c-0.7-0.2-1.6-0.3-2.8-0.3c-1.1,0-2.1,0.2-2.8,0.6c-0.7,0.4-1.4,1-1.9,1.7
		c-0.5,0.6-0.9,1.4-1.1,2.2c-0.3,0.8-0.4,1.7-0.4,2.7c0,1.9,0.5,3.5,1.4,4.8c1,1.3,2.3,1.9,4.2,1.9c1,0,1.8-0.2,2.4-0.5
		c0.7-0.4,1.2-0.8,1.6-1.4c0.4-0.6,0.7-1.2,0.9-1.9c0.2-0.7,0.3-1.4,0.3-2V321z M370.7,335.7c-0.3,0.3-0.6,0.7-1.1,1
		c-0.4,0.4-0.9,0.7-1.5,1c-0.6,0.3-1.2,0.5-1.9,0.7c-0.7,0.2-1.5,0.3-2.3,0.3c-1.2,0-2.4-0.3-3.6-0.8c-1.2-0.5-2.2-1.3-3.2-2.3
		c-0.9-1-1.7-2.2-2.3-3.6c-0.6-1.4-0.9-3.1-0.9-4.9c0-1.8,0.3-3.3,0.8-4.6c0.5-1.3,1.2-2.5,1.9-3.4c0.6-0.8,1.3-1.4,2.1-1.9
		c0.8-0.5,1.5-0.9,2.3-1.3c0.8-0.3,1.5-0.6,2.3-0.7c0.7-0.1,1.4-0.2,1.9-0.2c0.7,0,1.3,0,1.8,0.1c0.5,0,0.9,0.1,1.3,0.2
		c0.4,0.1,0.7,0.2,1.1,0.3c0.3,0.1,0.7,0.3,1.1,0.4v-10h5.6v32h-5.5L370.7,335.7z"/>
	<path class="st0" d="M382.5,315.4h5.7v22.5h-5.7V315.4z M382.4,305.9h6v5.9h-6V305.9z"/>
	<path class="st0" d="M397.4,320h-3.8v-4.6h3.8v-7.3h5.7v7.3h6v4.6h-6v9.8c0,1.3,0.2,2.3,0.6,3c0.4,0.7,1.1,1,2.1,1
		c0.9,0,1.6-0.1,2.1-0.4c0.5-0.3,1-0.6,1.5-0.9l2.4,3.5c-1.1,0.9-2.2,1.6-3.3,2c-1.1,0.4-2.3,0.6-3.6,0.6c-1.4,0-2.5-0.2-3.5-0.6
		c-1-0.4-1.7-1-2.3-1.7c-0.6-0.7-1-1.6-1.3-2.7c-0.3-1-0.4-2.2-0.4-3.4V320z"/>
	<path class="st0" d="M416.4,315.4h5.7v22.5h-5.7V315.4z M416.2,305.9h6v5.9h-6V305.9z"/>
	<path class="st0" d="M444,324.3c0-0.6-0.1-1.2-0.3-1.7c-0.2-0.6-0.6-1.1-1-1.6c-0.4-0.5-1-0.8-1.7-1.2c-0.7-0.3-1.4-0.5-2.3-0.5
		c-0.9,0-1.8,0.2-2.5,0.5c-0.7,0.3-1.3,0.7-1.8,1.2c-0.5,0.5-0.8,1-1.1,1.6c-0.3,0.6-0.4,1.2-0.4,1.7H444z M449.5,334.6
		c-0.1,0.1-0.4,0.4-0.8,0.8c-0.4,0.4-1.1,0.9-1.9,1.4c-0.8,0.5-1.9,0.9-3.1,1.3c-1.3,0.4-2.8,0.6-4.5,0.6c-1.8,0-3.4-0.3-4.9-0.9
		c-1.5-0.6-2.7-1.4-3.8-2.5c-1-1.1-1.8-2.4-2.4-3.9c-0.6-1.5-0.8-3.2-0.8-5c0-1.7,0.3-3.2,0.8-4.6c0.6-1.4,1.3-2.7,2.4-3.7
		c1-1.1,2.2-1.9,3.6-2.5c1.4-0.6,2.9-0.9,4.6-0.9c2,0,3.8,0.4,5.2,1.1c1.4,0.8,2.6,1.7,3.4,3c0.9,1.2,1.5,2.6,1.9,4.1
		c0.4,1.5,0.6,3.1,0.6,4.7v0.8H433c0,0.8,0.2,1.6,0.5,2.3c0.4,0.7,0.8,1.2,1.4,1.7c0.6,0.5,1.3,0.8,2,1.1c0.7,0.3,1.5,0.4,2.2,0.4
		c1.1,0,2-0.1,2.9-0.3c0.8-0.2,1.5-0.4,2.1-0.7c0.6-0.3,1-0.6,1.4-0.9c0.4-0.3,0.6-0.5,0.8-0.7L449.5,334.6z"/>
	<path class="st0" d="M457.9,331.5c0.7,0.7,1.6,1.3,2.7,1.7c1.1,0.5,2.3,0.7,3.7,0.7c1.2,0,2.2-0.2,2.9-0.5c0.7-0.3,1.1-0.8,1.1-1.6
		c0-0.3-0.1-0.6-0.2-0.9c-0.1-0.3-0.4-0.5-0.8-0.8c-0.4-0.3-1-0.5-1.7-0.8c-0.7-0.3-1.7-0.5-3-0.8c-0.8-0.2-1.6-0.4-2.4-0.8
		c-0.8-0.3-1.6-0.8-2.3-1.3c-0.7-0.6-1.3-1.2-1.8-2c-0.5-0.8-0.7-1.7-0.7-2.8c0-1.1,0.3-2.1,0.8-3c0.5-0.9,1.3-1.6,2.1-2.2
		c0.9-0.6,1.9-1.1,3-1.4c1.1-0.3,2.2-0.5,3.3-0.5c2,0,3.7,0.2,5.1,0.6c1.4,0.4,2.6,1,3.8,1.9l-2.9,4c-0.6-0.4-1.4-0.9-2.4-1.2
		c-1-0.4-2.2-0.6-3.5-0.6c-1.3,0-2.3,0.2-2.8,0.6c-0.5,0.4-0.8,0.9-0.8,1.5c0,0.7,0.4,1.3,1.3,1.7c0.9,0.4,2.2,0.8,4.1,1.3
		c1.2,0.3,2.2,0.6,3.1,1c0.9,0.4,1.7,0.9,2.3,1.4c0.7,0.6,1.2,1.3,1.5,2c0.4,0.8,0.5,1.7,0.5,2.8s-0.3,2.1-0.8,3
		c-0.5,0.9-1.2,1.6-2.1,2.2c-0.9,0.6-1.9,1.1-3.1,1.4c-1.2,0.3-2.4,0.5-3.7,0.5c-2.1,0-4-0.3-5.7-0.9c-1.7-0.6-3.1-1.5-4.1-2.6
		L457.9,331.5z"/>
</g>
</svg>
